<svg version="1.1" id="レイヤー_1" xmlns="http://www.w3.org/2000/svg" x="0" y="0" viewBox="0 0 250 80" xml:space="preserve"><style>.st0{fill:#005a38}.st1{fill:#f18c00}</style><path class="st0" d="M45.4 27.1c2-.7 4.5-1.2 7.5-1.3v-.4C52.9 14 42.4 2.5 40 0c-1.5 1.6-6.5 7-9.8 13.7 3.5 1.4 6.9 3.3 9.5 5.9 2.7 2.7 4.5 5.2 5.7 7.5z"/><path class="st1" d="M46.3 37.4c.9.4 1.8 1 2.6 1.7 2.4-2.6 3.7-6.6 4-11.9-2.6.1-4.9.5-6.9 1.2 1.3 3.5 1.2 6.5.3 9z"/><path class="st0" d="M34.7 27.1c1-1.9 2.4-4 4.4-6.2-.1-.1-.2-.2-.2-.3-8.1-8.1-23.7-8.8-27.1-8.9 0 2.2.4 9.5 2.8 16.6 3.4-1.5 7.2-2.5 10.9-2.5s6.7.5 9.2 1.3z"/><path class="st1" d="M42.6 33.7c.9-.3 1.9-.6 3-.6-.1-3.5-2-7.3-5.6-11.2-1.8 1.9-3.1 3.9-4.1 5.7 3.5 1.5 5.6 3.7 6.7 6.1z"/><path class="st0" d="M27.1 34.6c-.7-2-1.2-4.5-1.3-7.5h-.4C14 27.1 2.5 37.6 0 40c1.6 1.5 7 6.5 13.7 9.8 1.4-3.5 3.3-6.9 5.9-9.5 2.7-2.7 5.2-4.5 7.5-5.7z"/><path class="st1" d="M37.4 33.7c.4-.9 1-1.8 1.7-2.6-2.6-2.4-6.6-3.7-11.9-4 .1 2.6.5 4.9 1.2 6.9 3.5-1.3 6.5-1.2 9-.3z"/><path class="st0" d="M27.1 45.3c-1.9-1-4-2.4-6.2-4.4-.1.1-.2.2-.3.2-8.1 8.1-8.8 23.7-8.9 27.1 2.2 0 9.5-.4 16.6-2.8-1.5-3.4-2.5-7.2-2.5-10.9s.5-6.7 1.3-9.2z"/><path class="st1" d="M33.7 37.4c-.3-.9-.6-1.9-.6-3-3.5.1-7.3 2-11.2 5.6 1.9 1.8 3.9 3.1 5.7 4.1 1.5-3.5 3.7-5.6 6.1-6.7z"/><path class="st0" d="M34.6 52.9c-2 .7-4.5 1.2-7.5 1.3v.4C27.1 66 37.6 77.5 40 80c1.5-1.6 6.5-7 9.8-13.7-3.5-1.4-6.9-3.3-9.5-5.9-2.7-2.7-4.5-5.2-5.7-7.5z"/><path class="st1" d="M33.7 42.6c-.9-.4-1.8-1-2.6-1.7-2.4 2.6-3.7 6.6-4 11.9 2.6-.1 4.9-.5 6.9-1.2-1.3-3.5-1.2-6.5-.3-9z"/><path class="st0" d="M45.3 52.9c-1 1.9-2.4 4-4.4 6.2.1.1.2.2.2.3 8.1 8.1 23.7 8.8 27.1 8.9 0-2.2-.4-9.5-2.8-16.6-3.4 1.5-7.2 2.5-10.9 2.5s-6.7-.5-9.2-1.3z"/><path class="st1" d="M37.4 46.3c-.9.3-1.9.6-3 .6.1 3.5 2 7.3 5.6 11.2 1.8-1.9 3.1-3.9 4.1-5.7-3.5-1.5-5.6-3.7-6.7-6.1z"/><path class="st0" d="M52.9 45.4c.7 2 1.2 4.5 1.3 7.5h.4C66 52.9 77.5 42.4 80 40c-1.6-1.5-7-6.5-13.7-9.8-1.4 3.5-3.3 6.9-5.9 9.5-2.7 2.7-5.2 4.5-7.5 5.7z"/><path class="st1" d="M42.6 46.3c-.4.9-1 1.8-1.7 2.6 2.6 2.4 6.6 3.7 11.9 4-.1-2.6-.5-4.9-1.2-6.9-3.5 1.3-6.5 1.2-9 .3z"/><path d="M51.7 14.5c1.5 3.4 2.6 7.2 2.6 10.9 0 10.5-3.8 15.2-8 17.1.3.9.6 1.9.6 3h.2c3.8-.2 7.9-2.5 12.2-6.8 8.1-8.1 8.8-23.7 8.9-27.1-2.1.2-9.4.5-16.5 2.9z" fill="#1c1c1b"/><g><path class="st1" d="M86.9 48c.1-.6.3-1.3.5-2.2.2-.9.4-1.8.6-2.9.2-1 .4-2.1.7-3.3l.6-3.3c.2-1.1.3-2.1.5-3 .1-.9.2-1.7.3-2.4v-.8-.9c0-.3.1-.5.3-.8.1-.3.4-.5.7-.6.4-.2.8-.3 1.2-.3.3 0 .7.1 1.1.4.1.1.2.2.3.4.1.2.2.5.3.8.1.3.2.6.2.9.1.3.1.6.2.8.1.6.4 1.3.8 2.1.4.9.8 1.8 1.4 2.8.6 1 1.2 2.1 1.9 3.2s1.4 2.3 2.2 3.4c.8 1.1 1.6 2.3 2.4 3.4.8 1.1 1.6 2.1 2.4 3 .3-1.3.6-2.5.9-3.7.2-1.2.5-2.3.7-3.4l.6-3.3c.2-1.1.4-2.3.6-3.4.1-.6.2-1.3.3-2 .1-.7.2-1.5.3-2.3.1-.8.2-1.5.3-2.2.1-.7.1-1.3.1-1.8V26v-.6c0-.2.1-.4.1-.6.1-.2.2-.3.3-.5.4-.4.8-.6 1.1-.6.3-.1.7-.1 1-.1.2 0 .3.1.5.3.1.2.3.4.4.7.1.3.2.6.3.8.1.3.1.5.1.7 0 .2 0 .4-.1.8s-.1.7-.2 1.1l-.3 1.2c-.1.4-.2.7-.2.9-.3 1.1-.6 2.4-.9 3.7-.3 1.4-.6 2.7-.8 4.1-.3 1.4-.5 2.7-.8 4.1-.2 1.3-.4 2.5-.6 3.6-.2 1.1-.3 1.9-.4 2.6-.1.7-.1 1.1-.1 1.3V52c0 .3 0 .6-.1.8-.1.2-.2.4-.3.5l-.4.4c-.2.1-.3.2-.4.2-.2 0-.3.1-.6.1-.2 0-.4.1-.6.1h-.6c-.2 0-.3-.1-.4-.2-.5-.4-.9-.9-1.2-1.3-.3-.4-.5-.8-.6-1.2 0-.1-.1-.3-.2-.5s-.2-.4-.3-.5c-.1-.2-.2-.3-.3-.5-.1-.2-.2-.3-.3-.4-.8-1-1.6-2.1-2.4-3.2-.8-1.1-1.6-2.2-2.3-3.4-.8-1.2-1.6-2.5-2.4-3.9-.8-1.4-1.6-2.9-2.5-4.5-.3 1.2-.7 2.6-.9 4-.3 1.4-.5 2.8-.7 4.1-.2 1.3-.4 2.6-.6 3.8-.2 1.2-.3 2.2-.4 3.1 0 .2-.1.6-.1.9v2.1c0 .3-.1.6-.1.8-.1.1-.2.3-.3.5-.1.2-.3.4-.4.5-.2.2-.3.3-.5.4-.2.1-.4.2-.6.2-.4 0-.6-.1-.8-.2-.2-.1-.4-.3-.5-.5-.1-.2-.2-.5-.2-.8 0-.3-.1-.7-.1-1.1v-.8c0-.4.1-.7.2-1.2.1-.4.2-.9.3-1.3-.4-.2-.3-.6-.2-1z"/><path class="st0" d="M143.7 38.7c0 .4-.1.9-.4 1.3-.2.5-.5.9-.8 1.3-.8 1.1-1.6 2-2.4 2.9-.8.9-1.7 1.7-2.6 2.5-.9.8-1.8 1.5-2.7 1.9-.9.5-1.7.7-2.4.7-.3 0-.6-.1-.9-.2-.3-.1-.6-.3-.9-.6-.3-.2-.5-.5-.7-.8-.2-.3-.4-.7-.5-1-.1-.2-.1-.4-.2-.6-.1-.2-.1-.5-.1-.7-.1-.2-.1-.4-.2-.5-.1-.1-.1-.2-.2-.2s-.2.1-.3.2c-.2.2-.3.4-.6.6-.2.3-.4.5-.7.9-.2.3-.5.6-.7.9-.2.3-.5.6-.6.8-.2.2-.3.4-.5.6-.4.4-.8.9-1.4 1.3s-1.1.9-1.6 1.2c-.5.4-1 .7-1.4.9-.4.2-.8.4-1 .4-.5 0-.9-.1-1.4-.2-.4-.2-.8-.4-1.2-.7-.3-.3-.6-.7-.8-1.1-.2-.4-.3-.9-.3-1.5 0-.9.2-2 .5-3.1.4-1.2.8-2.4 1.4-3.6.6-1.2 1.3-2.4 2.1-3.5s1.6-2.1 2.4-2.9c1-.9 2-1.6 3.1-2.1 1.1-.4 2.2-.7 3.3-.7.2 0 .4 0 .5.1.2.1.3.2.4.3.1.1.2.3.3.5.1.2.2.3.3.5 0 .1.2.2.3.4.2.1.3.3.5.4.2.1.3.3.5.4.1.1.2.3.2.4 0 .3-.1.5-.2.9-.1.3-.2.7-.3 1.1-.1.4-.2.9-.3 1.4-.1.5-.2 1.1-.2 1.8 0 .4 0 1 .1 1.5.1.6.2 1.1.4 1.6s.4.9.6 1.3c.3.3.6.5.9.5.4 0 .8-.1 1.3-.4.4-.2.9-.6 1.4-1 1.2-1 2.4-2 3.5-3.2 1.1-1.2 2.2-2.3 3.3-3.4.2-.2.4-.3.6-.3.5.1.6.3.6.8zm-14.5-2.2s0-.1-.1-.2c0-.1-.1-.2-.2-.3l-.3-.3c-.1-.1-.2-.1-.3-.1-.5.1-.9.2-1.5.5-.5.3-1.1.6-1.7 1.2-.6.5-1.2 1.2-1.8 2-.6.8-1.3 1.8-2 3-.2.4-.4.8-.7 1.2-.3.4-.5.9-.7 1.4-.2.5-.4 1.1-.6 1.6-.2.6-.2 1.2-.2 1.8 0 .4.1.7.4.9.3.2.6.3.9.3.3 0 .7-.2 1.2-.5s1-.8 1.6-1.4c.6-.6 1.2-1.2 1.8-1.9.6-.7 1.2-1.5 1.7-2.2.5-.8 1-1.5 1.3-2.3.4-.7.6-1.4.8-2 0-.2.1-.4.1-.7 0-.3.1-.5.1-.8 0-.3.1-.5.1-.7.1-.2.1-.4.1-.5z"/><path class="st0" d="M173.1 40.2c0 .2 0 .5-.1.7-.1.2-.2.5-.3.7-.1.2-.3.5-.4.7-.1.2-.3.4-.4.7-.4.6-.8 1.1-1.3 1.7-.5.6-1 1.1-1.5 1.7-.6.5-1.1 1.1-1.7 1.5-.6.5-1.2.9-1.7 1.3-.4.3-.9.6-1.3.8-.4.3-.8.5-1.2.7-.4.2-.8.3-1.3.4-.4.1-.9.2-1.5.2-1 0-1.9-.3-2.5-.8-.3-.3-.6-.6-.8-1-.2-.4-.5-.9-.6-1.4-.2-.5-.3-1-.5-1.6-.1-.6-.2-1.1-.3-1.7-.1-.7-.2-1.3-.3-1.9-.1-.6-.2-1-.3-1.4-.1-.4-.3-.7-.5-.9-.2-.2-.4-.3-.7-.3-.2 0-.5 0-.7.1-.2 0-.4.1-.7.3-.2.1-.5.4-.8.6-.3.3-.6.6-1 1.1-.4.4-.8 1-1.3 1.6-.5.6-1 1.4-1.7 2.3-.3.4-.7.9-1.1 1.4-.4.5-.9 1-1.3 1.5s-.9.9-1.3 1.2c-.4.4-.8.6-1.1.7-1.1-.2-1.6-1.6-1.6-4.1 0-.7.1-1.7.2-3 .1-.6.2-1.2.3-1.9.1-.7.2-1.3.4-2 .1-.7.3-1.3.5-1.9.2-.6.4-1.2.7-1.7.1-.2.3-.4.4-.6.1-.1.3-.2.4-.3.1-.1.3-.1.4-.1h.5c.2 0 .4.1.5.4.2.3.2.6.2 1.1 0 .3 0 .6-.1.8 0 .3-.1.5-.2.8l-.3.9c-.1.3-.2.7-.3 1.1-.1.3-.2.7-.3 1.1l-.3 1.2c-.1.4-.1.8-.2 1.2-.1.4-.1.8-.1 1.1 0 .2 0 .5.1.7.3 0 .9-.6 1.7-1.6.4-.5.9-1.1 1.3-1.7.5-.6 1-1.3 1.6-2 .4-.5.8-1.1 1.3-1.5.4-.5.8-.9 1.3-1.2.4-.4.9-.6 1.4-.8.5-.2 1.1-.3 1.7-.3.6 0 1.2.1 1.6.4.4.3.8.7 1 1.2.3.5.5 1.1.6 1.8.1.7.3 1.4.3 2.2.1.7.1 1.4.2 2.1.1.7.2 1.3.4 1.8s.5 1 .9 1.3c.4.3.9.5 1.6.5.5 0 1.1-.1 1.7-.4.6-.2 1.2-.6 1.8-1 .6-.4 1.3-1 2-1.5.7-.6 1.4-1.2 2.1-2 .3-.3.6-.6.9-1 .3-.4.7-.8 1-1.2.3-.4.6-.7.9-1 .3-.3.5-.4.7-.4.1 0 .2 0 .4.1.5.2.6.4.6.5z"/><path class="st0" d="M195.9 37.9c0 .2 0 .4-.1.6-.1.2-.2.4-.4.6-.1.2-.3.4-.5.6-.2.2-.4.3-.5.4-.4.3-1 .5-1.8.8-.8.2-1.8.3-3 .3-.9 0-1.9-.1-2.8-.4-1-.2-1.9-.6-2.7-1.2.3.4.5.8.5 1.2.1.4.1.9.1 1.4 0 1-.2 2-.7 3.1-.5 1.1-1.1 2.1-1.9 3.1-.8 1-1.6 1.7-2.4 2.4-.5.4-1 .7-1.6.9-.6.3-1.2.5-1.8.6-.6.2-1.3.3-2 .4-.7.1-1.4.1-2.1.1-.5 0-1-.2-1.4-.5-.5-.3-.9-.7-1.2-1.1-.4-.4-.6-.9-.9-1.4-.2-.5-.3-1-.3-1.4 0-1 .1-2 .4-2.9.3-.9.6-1.8 1.1-2.7.5-.9 1-1.7 1.6-2.5.6-.8 1.2-1.6 1.9-2.5.4-.5.8-.9 1.3-1.3l1.5-1.2c.5-.3 1-.6 1.6-.8.5-.2 1-.3 1.5-.3.4 0 .7.1 1 .2.3.1.6.3.8.5.3.2.5.5.8.8.3.3.6.7.9 1 .1.1.4.3.9.5s1.1.4 1.8.6c.7.2 1.4.4 2.2.5.8.2 1.4.2 2.1.2.6 0 1.2 0 1.7-.1.5 0 1-.1 1.5-.2s1-.2 1.5-.4 1-.4 1.6-.6c-.2.4-.2.6-.2.7zM182 42.4c0-.3 0-.7-.1-1.2-.1-.4-.2-.9-.3-1.2-.2-.4-.4-.7-.6-1-.3-.2-.6-.3-.9-.3-.6-.2-1-.5-1.4-.7-.4-.2-.7-.4-.9-.4-.1 0-.3 0-.5.1s-.4.2-.5.4c-.2.2-.4.3-.6.6-.2.2-.4.4-.6.7-.4.5-.7.9-1 1.3l-.9 1.2c-.3.4-.5.8-.8 1.2-.3.4-.5.9-.8 1.4-.1.2-.2.5-.3.8-.1.3-.2.6-.2 1s-.1.7-.1 1v.9c0 .2.1.4.2.6.1.2.3.5.4.7.2.2.4.4.6.5.2.1.5.2.7.2.6 0 1.2 0 1.6-.1.4-.1.9-.2 1.2-.3.4-.1.8-.3 1.1-.6.4-.2.8-.6 1.3-1 .2-.2.5-.4.7-.7.2-.2.5-.5.7-.8.2-.3.5-.6.7-.9l.6-.9c.1-.2.2-.4.3-.7.1-.3.2-.5.2-.8 0-.3.1-.5.1-.7.1 0 .1-.2.1-.3z"/><path class="st0" d="M220.6 46.4c-.6.5-1.2 1.1-2 1.7-.7.6-1.6 1.1-2.4 1.6-.9.5-1.8.9-2.7 1.2-.9.3-1.9.5-2.9.5-.9 0-1.7-.2-2.3-.6-.6-.4-1.2-.9-1.6-1.7-.4-.8-.7-1.7-.9-2.9-.2-1.2-.3-2.5-.3-4.1-.3.5-.6 1-1 1.4-.4.5-.7 1-1.1 1.4-.4.5-.7.9-1 1.2-.3.4-.6.7-.8.9-1.7 1.7-3.4 3-4.9 4-1.5.9-2.9 1.4-4.3 1.4-.4 0-.8-.1-1.1-.2-.3-.1-.6-.3-.8-.6-.2-.2-.4-.5-.5-.8-.1-.3-.2-.6-.2-.9 0-1 .2-2 .5-3s.7-2.1 1.2-3.1 1-2 1.6-2.9c.6-.9 1.2-1.8 1.8-2.5.6-.7 1.1-1.4 1.7-2 .6-.6 1.2-1.2 1.7-1.6.6-.5 1.1-.8 1.6-1.1.5-.3 1-.4 1.4-.4.2 0 .4.1.7.1.3.1.5.2.8.4.3.1.5.3.7.4.2.1.3.2.4.3.1.2.3.4.5.6.2.2.3.4.3.7 0 .1 0 .3-.1.6-.1.2-.2.4-.3.5l-.2.2c0 .1-.1.1-.2.2s-.2.1-.3.1c-.1 0-.3.1-.5.1s-.4-.1-.6-.2c-.2-.1-.3-.3-.4-.5l-.3-.6c-.1-.2-.2-.3-.3-.4-.4 0-.9.2-1.4.5-.5.3-1 .7-1.5 1.3-.5.5-1 1.1-1.4 1.8-.5.7-.9 1.4-1.4 2.1-.4.7-.8 1.4-1.2 2.2-.4.7-.7 1.4-1 2-.3.6-.5 1.1-.6 1.6-.1.4-.2.7-.2.9 0 .3.1.6.3.8.2.2.5.4.9.4s.8-.1 1.2-.3c.4-.2.8-.4 1.3-.6.4-.2.8-.5 1.2-.8.4-.3.7-.5 1-.7.6-.5 1.3-1.1 1.9-1.8.7-.7 1.4-1.4 2-2.1.6-.8 1.2-1.5 1.7-2.3.5-.8.9-1.6 1.1-2.4.1-.5.3-1.1.4-1.7.1-.7.3-1.4.4-2.1.1-.7.2-1.5.3-2.3l.3-2.4c.1-.8.1-1.5.2-2.2.1-.7.1-1.4.2-2 .1-1.6.8-2.4 2.2-2.4.3 0 .6.2.7.5.2.4.3.9.3 1.6 0 .1 0 .4-.1.8-.1.5-.1 1-.3 1.7-.1.7-.2 1.5-.4 2.3-.1.9-.3 1.7-.4 2.6-.1.9-.3 1.8-.4 2.7-.1.9-.3 1.7-.4 2.5-.1.8-.2 1.4-.3 2-.1.6-.1 1-.1 1.3v1.3c0 .5 0 1 .1 1.5s.1 1 .3 1.6c.1.5.3 1 .6 1.4.2.4.6.7.9 1 .4.3.9.4 1.4.4.7 0 1.4-.1 2.1-.3.7-.2 1.4-.4 2.1-.8.7-.3 1.5-.7 2.2-1.2.8-.5 1.5-1 2.4-1.6l.1-.1.2-.2.2-.2.1-.1c.1 0 .2.1.2.3.1.2.1.4.1.7 0 .2 0 .5-.1.7.1.3 0 .5-.3.7z"/><path class="st0" d="M242.2 40.7c0 .2-.1.5-.4 1-.6.9-1.4 1.9-2.2 2.8-.8.9-1.6 1.8-2.5 2.6-.9.8-1.8 1.6-2.8 2.3-1 .7-2 1.3-2.9 1.9-1 .5-2 .9-3 1.2-1 .3-1.9.4-2.9.4-2 0-3.5-.6-4.6-1.7-1.1-1.1-1.6-2.9-1.6-5.2 0-1.9.3-3.8.9-5.7.6-1.8 1.6-3.6 3.1-5.3l.9-.9c.3-.3.7-.5 1.1-.7.4-.2.8-.4 1.2-.5.4-.1.8-.2 1.2-.2h.4c.2 0 .4.1.6.1.2.1.4.1.6.2.2.1.3.2.4.3.3.4.6.8.8 1.2.2.4.3.9.3 1.4 0 .6 0 1.1-.2 1.7-.2.6-.4 1.1-.8 1.7-.4.6-.8 1.2-1.4 1.8-.6.6-1.3 1.3-2.2 2-.5.4-1.1.9-1.8 1.5-.6.5-1.4 1.1-2.3 1.7 0 1.2.4 2.1 1.1 2.7.7.6 1.7.9 3 .9.7 0 1.4-.1 2.1-.3.7-.2 1.4-.4 2.1-.7.7-.3 1.4-.7 2-1 .7-.4 1.3-.8 1.8-1.2 1.1-.8 2-1.5 2.9-2.3.9-.8 1.7-1.6 2.5-2.4l1-1c.6-.5 1-.8 1.3-.8.2.1.3.3.3.5zM228 37c0-.2 0-.4-.1-.5 0-.2-.1-.3-.2-.5l-.3-.3c-.1-.1-.2-.1-.4-.1-.7 0-1.3.4-2 1.2-.7.8-1.3 1.8-1.9 3-.1.3-.3.6-.4.9-.1.3-.2.7-.3 1-.1.4-.2.7-.2 1-.1.3-.1.7-.2.9.6-.5 1.2-.9 1.8-1.3.5-.4 1.1-.8 1.5-1.3l.9-.9c.3-.3.6-.6.8-1 .3-.3.5-.7.6-1.1.3-.2.4-.6.4-1z"/><path class="st0" d="M250 49.5c0 .6-.1 1.2-.3 1.8-.2.6-.5 1.2-.9 1.7s-.8 1-1.3 1.5-1 .8-1.5 1.2c-.5.3-1.1.6-1.6.8-.5.2-1 .3-1.5.3-.6 0-1-.1-1.2-.4s-.3-.7-.3-1.2.1-.8.3-1c.2-.2.4-.4.7-.6h1.2c.1 0 .2 0 .4-.1.2 0 .3-.1.5-.2l.6-.3c.2-.1.4-.2.6-.4.5-.4.8-.8 1-1.3.2-.5.3-.9.3-1.3 0-.5-.2-.9-.5-1.4-.3-.4-.7-.8-1.2-1.2l-1.5-1.2c-.5-.4-1.1-.8-1.5-1.3-.5-.5-.9-.9-1.2-1.4-.3-.5-.5-1.1-.5-1.7 0-.3 0-.6.1-1 .1-.3.2-.7.3-1 .1-.3.3-.7.4-1 .2-.3.3-.6.5-.9.3-.4.6-.8 1-1.2.4-.4.7-.8 1.1-1.1.4-.3.7-.6 1.1-.8.3-.2.7-.3 1-.3.8 0 1.3.5 1.3 1.5 0 .3-.1.7-.4 1.2-.3.5-.6.9-1 1.3-.6.6-1.1 1.1-1.6 1.5-.4.4-.9.8-1.2 1.2l.9 1.2 1 1c.4.3.7.6 1.1.9.4.3.8.6 1.1 1 .3.3.7.6 1 1 .3.3.6.7.8 1 .2.4.4.7.6 1.1.2.2.3.7.3 1.1z"/></g></svg>